<svg version="1.1" xmlns="http://www.w3.org/2000/svg" xmlns:xlink="http://www.w3.org/1999/xlink" stroke-linecap="round" stroke-linejoin="round" stroke-width="0" fill-rule="evenodd" width="49.14mm" height="21.32mm" viewBox="725 -22090 49140 21320" id="_axCQg_mwUHspIhTWV2p"><defs><circle cx="0" cy="0" r="75" id="_axCQg_mwUHspIhTWV2p_pad-1"/><circle cx="0" cy="0" r="100" id="_axCQg_mwUHspIhTWV2p_pad-2"/><circle cx="0" cy="0" r="300" id="_axCQg_mwUHspIhTWV2p_pad-3"/><circle cx="0" cy="0" r="425" id="_axCQg_mwUHspIhTWV2p_pad-4"/><circle cx="0" cy="0" r="500" id="_axCQg_mwUHspIhTWV2p_pad-5"/><circle cx="0" cy="0" r="1270" id="_axCQg_mwUHspIhTWV2p_pad-6"/><circle cx="0" cy="0" r="1270" id="_axCQg_mwUHspIhTWV2p_pad-7"/></defs><g transform="translate(0,-22860) scale(1,-1)" fill="currentColor" stroke="currentColor"><use xlink:href="#_axCQg_mwUHspIhTWV2p_pad-1" x="800" y="-6000"/><use xlink:href="#_axCQg_mwUHspIhTWV2p_pad-1" x="905" y="-16320"/><use xlink:href="#_axCQg_mwUHspIhTWV2p_pad-1" x="2800" y="-16200"/><use xlink:href="#_axCQg_mwUHspIhTWV2p_pad-1" x="4800" y="-5200"/><use xlink:href="#_axCQg_mwUHspIhTWV2p_pad-1" x="4800" y="-6000"/><use xlink:href="#_axCQg_mwUHspIhTWV2p_pad-1" x="5190" y="-12700"/><use xlink:href="#_axCQg_mwUHspIhTWV2p_pad-1" x="5340" y="-10230"/><use xlink:href="#_axCQg_mwUHspIhTWV2p_pad-1" x="5465" y="-10880"/><use xlink:href="#_axCQg_mwUHspIhTWV2p_pad-1" x="5465" y="-11330"/><use xlink:href="#_axCQg_mwUHspIhTWV2p_pad-1" x="5640" y="-19005"/><use xlink:href="#_axCQg_mwUHspIhTWV2p_pad-1" x="5967" y="-16580"/><use xlink:href="#_axCQg_mwUHspIhTWV2p_pad-1" x="6040" y="-9030"/><use xlink:href="#_axCQg_mwUHspIhTWV2p_pad-1" x="6040" y="-9780"/><use xlink:href="#_axCQg_mwUHspIhTWV2p_pad-1" x="6042" y="-16205"/><use xlink:href="#_axCQg_mwUHspIhTWV2p_pad-1" x="6117" y="-5005"/><use xlink:href="#_axCQg_mwUHspIhTWV2p_pad-1" x="6140" y="-13780"/><use xlink:href="#_axCQg_mwUHspIhTWV2p_pad-1" x="6190" y="-10530"/><use xlink:href="#_axCQg_mwUHspIhTWV2p_pad-1" x="6267" y="-17355"/><use xlink:href="#_axCQg_mwUHspIhTWV2p_pad-1" x="6342" y="-16430"/><use xlink:href="#_axCQg_mwUHspIhTWV2p_pad-1" x="6440" y="-12880"/><use xlink:href="#_axCQg_mwUHspIhTWV2p_pad-1" x="6490" y="-17080"/><use xlink:href="#_axCQg_mwUHspIhTWV2p_pad-1" x="6490" y="-1880"/><use xlink:href="#_axCQg_mwUHspIhTWV2p_pad-1" x="6490" y="-2380"/><use xlink:href="#_axCQg_mwUHspIhTWV2p_pad-1" x="6490" y="-2830"/><use xlink:href="#_axCQg_mwUHspIhTWV2p_pad-1" x="7190" y="-8530"/><use xlink:href="#_axCQg_mwUHspIhTWV2p_pad-1" x="7290" y="-19280"/><use xlink:href="#_axCQg_mwUHspIhTWV2p_pad-1" x="7342" y="-5505"/><use xlink:href="#_axCQg_mwUHspIhTWV2p_pad-1" x="7540" y="-18930"/><use xlink:href="#_axCQg_mwUHspIhTWV2p_pad-1" x="7740" y="-6030"/><use xlink:href="#_axCQg_mwUHspIhTWV2p_pad-1" x="7890" y="-14976"/><use xlink:href="#_axCQg_mwUHspIhTWV2p_pad-1" x="8040" y="-6830"/><use xlink:href="#_axCQg_mwUHspIhTWV2p_pad-1" x="8079" y="-8418"/><use xlink:href="#_axCQg_mwUHspIhTWV2p_pad-1" x="8240" y="-12880"/><use xlink:href="#_axCQg_mwUHspIhTWV2p_pad-1" x="8390" y="-14976"/><use xlink:href="#_axCQg_mwUHspIhTWV2p_pad-1" x="8640" y="-17480"/><use xlink:href="#_axCQg_mwUHspIhTWV2p_pad-1" x="8640" y="-12430"/><use xlink:href="#_axCQg_mwUHspIhTWV2p_pad-1" x="8640" y="-13280"/><use xlink:href="#_axCQg_mwUHspIhTWV2p_pad-1" x="8690" y="-19580"/><use xlink:href="#_axCQg_mwUHspIhTWV2p_pad-1" x="8890" y="-10230"/><use xlink:href="#_axCQg_mwUHspIhTWV2p_pad-1" x="8915" y="-1405"/><use xlink:href="#_axCQg_mwUHspIhTWV2p_pad-1" x="8990" y="-17480"/><use xlink:href="#_axCQg_mwUHspIhTWV2p_pad-1" x="9040" y="-12880"/><use xlink:href="#_axCQg_mwUHspIhTWV2p_pad-1" x="9390" y="-15080"/><use xlink:href="#_axCQg_mwUHspIhTWV2p_pad-1" x="9540" y="-4680"/><use xlink:href="#_axCQg_mwUHspIhTWV2p_pad-1" x="9740" y="-8080"/><use xlink:href="#_axCQg_mwUHspIhTWV2p_pad-1" x="9867" y="-5430"/><use xlink:href="#_axCQg_mwUHspIhTWV2p_pad-1" x="9890" y="-10880"/><use xlink:href="#_axCQg_mwUHspIhTWV2p_pad-1" x="10040" y="-8380"/><use xlink:href="#_axCQg_mwUHspIhTWV2p_pad-1" x="10090" y="-19430"/><use xlink:href="#_axCQg_mwUHspIhTWV2p_pad-1" x="10190" y="-20730"/><use xlink:href="#_axCQg_mwUHspIhTWV2p_pad-1" x="10240" y="-18430"/><use xlink:href="#_axCQg_mwUHspIhTWV2p_pad-1" x="10240" y="-1130"/><use xlink:href="#_axCQg_mwUHspIhTWV2p_pad-1" x="10267" y="-4580"/><use xlink:href="#_axCQg_mwUHspIhTWV2p_pad-1" x="10440" y="-19430"/><use xlink:href="#_axCQg_mwUHspIhTWV2p_pad-1" x="10540" y="-15030"/><use xlink:href="#_axCQg_mwUHspIhTWV2p_pad-1" x="10590" y="-18430"/><use xlink:href="#_axCQg_mwUHspIhTWV2p_pad-1" x="10890" y="-10380"/><use xlink:href="#_axCQg_mwUHspIhTWV2p_pad-1" x="10990" y="-12780"/><use xlink:href="#_axCQg_mwUHspIhTWV2p_pad-1" x="11440" y="-1780"/><use xlink:href="#_axCQg_mwUHspIhTWV2p_pad-1" x="11615" y="-10230"/><use xlink:href="#_axCQg_mwUHspIhTWV2p_pad-1" x="11640" y="-18380"/><use xlink:href="#_axCQg_mwUHspIhTWV2p_pad-1" x="11640" y="-18780"/><use xlink:href="#_axCQg_mwUHspIhTWV2p_pad-1" x="11790" y="-13780"/><use xlink:href="#_axCQg_mwUHspIhTWV2p_pad-1" x="11815" y="-8455"/><use xlink:href="#_axCQg_mwUHspIhTWV2p_pad-1" x="11940" y="-18580"/><use xlink:href="#_axCQg_mwUHspIhTWV2p_pad-1" x="12042" y="-4605"/><use xlink:href="#_axCQg_mwUHspIhTWV2p_pad-1" x="12467" y="-15930"/><use xlink:href="#_axCQg_mwUHspIhTWV2p_pad-1" x="12467" y="-16630"/><use xlink:href="#_axCQg_mwUHspIhTWV2p_pad-1" x="12467" y="-17030"/><use xlink:href="#_axCQg_mwUHspIhTWV2p_pad-1" x="12567" y="-17430"/><use xlink:href="#_axCQg_mwUHspIhTWV2p_pad-1" x="13217" y="-13680"/><use xlink:href="#_axCQg_mwUHspIhTWV2p_pad-1" x="13217" y="-11853"/><use xlink:href="#_axCQg_mwUHspIhTWV2p_pad-1" x="13290" y="-1880"/><use xlink:href="#_axCQg_mwUHspIhTWV2p_pad-1" x="13290" y="-2380"/><use xlink:href="#_axCQg_mwUHspIhTWV2p_pad-1" x="13290" y="-2830"/><use xlink:href="#_axCQg_mwUHspIhTWV2p_pad-1" x="13440" y="-15030"/><use xlink:href="#_axCQg_mwUHspIhTWV2p_pad-1" x="13617" y="-8555"/><use xlink:href="#_axCQg_mwUHspIhTWV2p_pad-1" x="13690" y="-15280"/><use xlink:href="#_axCQg_mwUHspIhTWV2p_pad-1" x="13692" y="-11130"/><use xlink:href="#_axCQg_mwUHspIhTWV2p_pad-1" x="13890" y="-19180"/><use xlink:href="#_axCQg_mwUHspIhTWV2p_pad-1" x="14040" y="-15380"/><use xlink:href="#_axCQg_mwUHspIhTWV2p_pad-1" x="14042" y="-7505"/><use xlink:href="#_axCQg_mwUHspIhTWV2p_pad-1" x="14140" y="-18830"/><use xlink:href="#_axCQg_mwUHspIhTWV2p_pad-1" x="14556" y="-7325"/><use xlink:href="#_axCQg_mwUHspIhTWV2p_pad-1" x="14590" y="-19580"/><use xlink:href="#_axCQg_mwUHspIhTWV2p_pad-1" x="14940" y="-1980"/><use xlink:href="#_axCQg_mwUHspIhTWV2p_pad-1" x="14986" y="-7325"/><use xlink:href="#_axCQg_mwUHspIhTWV2p_pad-1" x="14990" y="-19530"/><use xlink:href="#_axCQg_mwUHspIhTWV2p_pad-1" x="15167" y="-3905"/><use xlink:href="#_axCQg_mwUHspIhTWV2p_pad-1" x="15417" y="-4880"/><use xlink:href="#_axCQg_mwUHspIhTWV2p_pad-1" x="15440" y="-19530"/><use xlink:href="#_axCQg_mwUHspIhTWV2p_pad-1" x="15517" y="-3780"/><use xlink:href="#_axCQg_mwUHspIhTWV2p_pad-1" x="15642" y="-4605"/><use xlink:href="#_axCQg_mwUHspIhTWV2p_pad-1" x="15667" y="-7480"/><use xlink:href="#_axCQg_mwUHspIhTWV2p_pad-1" x="16690" y="-19330"/><use xlink:href="#_axCQg_mwUHspIhTWV2p_pad-1" x="16840" y="-18330"/><use xlink:href="#_axCQg_mwUHspIhTWV2p_pad-1" x="16959" y="-9968"/><use xlink:href="#_axCQg_mwUHspIhTWV2p_pad-1" x="16992" y="-11255"/><use xlink:href="#_axCQg_mwUHspIhTWV2p_pad-1" x="17040" y="-19330"/><use xlink:href="#_axCQg_mwUHspIhTWV2p_pad-1" x="17092" y="-12880"/><use xlink:href="#_axCQg_mwUHspIhTWV2p_pad-1" x="17117" y="-9105"/><use xlink:href="#_axCQg_mwUHspIhTWV2p_pad-1" x="17117" y="-13805"/><use xlink:href="#_axCQg_mwUHspIhTWV2p_pad-1" x="17117" y="-14230"/><use xlink:href="#_axCQg_mwUHspIhTWV2p_pad-1" x="17167" y="-11605"/><use xlink:href="#_axCQg_mwUHspIhTWV2p_pad-1" x="17190" y="-18330"/><use xlink:href="#_axCQg_mwUHspIhTWV2p_pad-1" x="17317" y="-9830"/><use xlink:href="#_axCQg_mwUHspIhTWV2p_pad-1" x="17742" y="-5005"/><use xlink:href="#_axCQg_mwUHspIhTWV2p_pad-1" x="17890" y="-17880"/><use xlink:href="#_axCQg_mwUHspIhTWV2p_pad-1" x="18117" y="-8580"/><use xlink:href="#_axCQg_mwUHspIhTWV2p_pad-1" x="18142" y="-5005"/><use xlink:href="#_axCQg_mwUHspIhTWV2p_pad-1" x="18417" y="-9880"/><use xlink:href="#_axCQg_mwUHspIhTWV2p_pad-1" x="18467" y="-8380"/><use xlink:href="#_axCQg_mwUHspIhTWV2p_pad-1" x="18467" y="-15780"/><use xlink:href="#_axCQg_mwUHspIhTWV2p_pad-1" x="18467" y="-17730"/><use xlink:href="#_axCQg_mwUHspIhTWV2p_pad-1" x="19290" y="-17930"/><use xlink:href="#_axCQg_mwUHspIhTWV2p_pad-1" x="19342" y="-6880"/><use xlink:href="#_axCQg_mwUHspIhTWV2p_pad-1" x="19642" y="-6644"/><use xlink:href="#_axCQg_mwUHspIhTWV2p_pad-1" x="20242" y="-5755"/><use xlink:href="#_axCQg_mwUHspIhTWV2p_pad-1" x="20290" y="-17080"/><use xlink:href="#_axCQg_mwUHspIhTWV2p_pad-1" x="20392" y="-7605"/><use xlink:href="#_axCQg_mwUHspIhTWV2p_pad-1" x="20542" y="-5480"/><use xlink:href="#_axCQg_mwUHspIhTWV2p_pad-1" x="20890" y="-15930"/><use xlink:href="#_axCQg_mwUHspIhTWV2p_pad-1" x="20917" y="-14655"/><use xlink:href="#_axCQg_mwUHspIhTWV2p_pad-1" x="21367" y="-8880"/><use xlink:href="#_axCQg_mwUHspIhTWV2p_pad-1" x="21390" y="-9380"/><use xlink:href="#_axCQg_mwUHspIhTWV2p_pad-1" x="21415" y="-13380"/><use xlink:href="#_axCQg_mwUHspIhTWV2p_pad-1" x="21440" y="-13980"/><use xlink:href="#_axCQg_mwUHspIhTWV2p_pad-1" x="21590" y="-16830"/><use xlink:href="#_axCQg_mwUHspIhTWV2p_pad-1" x="21890" y="-6380"/><use xlink:href="#_axCQg_mwUHspIhTWV2p_pad-1" x="21890" y="-7380"/><use xlink:href="#_axCQg_mwUHspIhTWV2p_pad-1" x="21890" y="-8380"/><use xlink:href="#_axCQg_mwUHspIhTWV2p_pad-1" x="21890" y="-9380"/><use xlink:href="#_axCQg_mwUHspIhTWV2p_pad-1" x="21890" y="-10380"/><use xlink:href="#_axCQg_mwUHspIhTWV2p_pad-1" x="21890" y="-11880"/><use xlink:href="#_axCQg_mwUHspIhTWV2p_pad-1" x="21890" y="-12380"/><use xlink:href="#_axCQg_mwUHspIhTWV2p_pad-1" x="21892" y="-5380"/><use xlink:href="#_axCQg_mwUHspIhTWV2p_pad-1" x="22240" y="-17580"/><use xlink:href="#_axCQg_mwUHspIhTWV2p_pad-1" x="22290" y="-14280"/><use xlink:href="#_axCQg_mwUHspIhTWV2p_pad-1" x="22383" y="-12887"/><use xlink:href="#_axCQg_mwUHspIhTWV2p_pad-1" x="22390" y="-5380"/><use xlink:href="#_axCQg_mwUHspIhTWV2p_pad-1" x="22390" y="-6380"/><use xlink:href="#_axCQg_mwUHspIhTWV2p_pad-1" x="22390" y="-7380"/><use xlink:href="#_axCQg_mwUHspIhTWV2p_pad-1" x="22390" y="-8380"/><use xlink:href="#_axCQg_mwUHspIhTWV2p_pad-1" x="22390" y="-9380"/><use xlink:href="#_axCQg_mwUHspIhTWV2p_pad-1" x="22390" y="-10380"/><use xlink:href="#_axCQg_mwUHspIhTWV2p_pad-1" x="22390" y="-11880"/><use xlink:href="#_axCQg_mwUHspIhTWV2p_pad-1" x="22390" y="-13380"/><use xlink:href="#_axCQg_mwUHspIhTWV2p_pad-1" x="22540" y="-3030"/><use xlink:href="#_axCQg_mwUHspIhTWV2p_pad-1" x="22790" y="-2680"/><use xlink:href="#_axCQg_mwUHspIhTWV2p_pad-1" x="22889" y="-12880"/><use xlink:href="#_axCQg_mwUHspIhTWV2p_pad-1" x="22889" y="-13380"/><use xlink:href="#_axCQg_mwUHspIhTWV2p_pad-1" x="22890" y="-5380"/><use xlink:href="#_axCQg_mwUHspIhTWV2p_pad-1" x="23390" y="-7380"/><use xlink:href="#_axCQg_mwUHspIhTWV2p_pad-1" x="23390" y="-7880"/><use xlink:href="#_axCQg_mwUHspIhTWV2p_pad-1" x="23390" y="-8880"/><use xlink:href="#_axCQg_mwUHspIhTWV2p_pad-1" x="23390" y="-9880"/><use xlink:href="#_axCQg_mwUHspIhTWV2p_pad-1" x="23390" y="-11380"/><use xlink:href="#_axCQg_mwUHspIhTWV2p_pad-1" x="23390" y="-11880"/><use xlink:href="#_axCQg_mwUHspIhTWV2p_pad-1" x="23390" y="-18080"/><use xlink:href="#_axCQg_mwUHspIhTWV2p_pad-1" x="23390" y="-19080"/><use xlink:href="#_axCQg_mwUHspIhTWV2p_pad-1" x="23390" y="-10380"/><use xlink:href="#_axCQg_mwUHspIhTWV2p_pad-1" x="23590" y="-17280"/><use xlink:href="#_axCQg_mwUHspIhTWV2p_pad-1" x="23890" y="-6380"/><use xlink:href="#_axCQg_mwUHspIhTWV2p_pad-1" x="23890" y="-8880"/><use xlink:href="#_axCQg_mwUHspIhTWV2p_pad-1" x="23890" y="-6880"/><use xlink:href="#_axCQg_mwUHspIhTWV2p_pad-1" x="23890" y="-7880"/><use xlink:href="#_axCQg_mwUHspIhTWV2p_pad-1" x="23890" y="-8380"/><use xlink:href="#_axCQg_mwUHspIhTWV2p_pad-1" x="23890" y="-9880"/><use xlink:href="#_axCQg_mwUHspIhTWV2p_pad-1" x="23890" y="-10380"/><use xlink:href="#_axCQg_mwUHspIhTWV2p_pad-1" x="23890" y="-10880"/><use xlink:href="#_axCQg_mwUHspIhTWV2p_pad-1" x="24240" y="-16880"/><use xlink:href="#_axCQg_mwUHspIhTWV2p_pad-1" x="24390" y="-6380"/><use xlink:href="#_axCQg_mwUHspIhTWV2p_pad-1" x="24390" y="-6880"/><use xlink:href="#_axCQg_mwUHspIhTWV2p_pad-1" x="24390" y="-7380"/><use xlink:href="#_axCQg_mwUHspIhTWV2p_pad-1" x="24390" y="-7880"/><use xlink:href="#_axCQg_mwUHspIhTWV2p_pad-1" x="24390" y="-8880"/><use xlink:href="#_axCQg_mwUHspIhTWV2p_pad-1" x="24390" y="-9880"/><use xlink:href="#_axCQg_mwUHspIhTWV2p_pad-1" x="24390" y="-11880"/><use xlink:href="#_axCQg_mwUHspIhTWV2p_pad-1" x="24390" y="-12380"/><use xlink:href="#_axCQg_mwUHspIhTWV2p_pad-1" x="24390" y="-12880"/><use xlink:href="#_axCQg_mwUHspIhTWV2p_pad-1" x="24453" y="-17226"/><use xlink:href="#_axCQg_mwUHspIhTWV2p_pad-1" x="24710" y="-3745"/><use xlink:href="#_axCQg_mwUHspIhTWV2p_pad-1" x="24890" y="-6880"/><use xlink:href="#_axCQg_mwUHspIhTWV2p_pad-1" x="24890" y="-10880"/><use xlink:href="#_axCQg_mwUHspIhTWV2p_pad-1" x="24890" y="-11380"/><use xlink:href="#_axCQg_mwUHspIhTWV2p_pad-1" x="24890" y="-11880"/><use xlink:href="#_axCQg_mwUHspIhTWV2p_pad-1" x="24890" y="-13380"/><use xlink:href="#_axCQg_mwUHspIhTWV2p_pad-1" x="25168" y="-3701"/><use xlink:href="#_axCQg_mwUHspIhTWV2p_pad-1" x="25240" y="-14780"/><use xlink:href="#_axCQg_mwUHspIhTWV2p_pad-1" x="25340" y="-4280"/><use xlink:href="#_axCQg_mwUHspIhTWV2p_pad-1" x="25390" y="-6380"/><use xlink:href="#_axCQg_mwUHspIhTWV2p_pad-1" x="25390" y="-6880"/><use xlink:href="#_axCQg_mwUHspIhTWV2p_pad-1" x="25390" y="-7880"/><use xlink:href="#_axCQg_mwUHspIhTWV2p_pad-1" x="25390" y="-8880"/><use xlink:href="#_axCQg_mwUHspIhTWV2p_pad-1" x="25390" y="-9880"/><use xlink:href="#_axCQg_mwUHspIhTWV2p_pad-1" x="25390" y="-10880"/><use xlink:href="#_axCQg_mwUHspIhTWV2p_pad-1" x="25390" y="-11880"/><use xlink:href="#_axCQg_mwUHspIhTWV2p_pad-1" x="25390" y="-13380"/><use xlink:href="#_axCQg_mwUHspIhTWV2p_pad-1" x="25390" y="-13930"/><use xlink:href="#_axCQg_mwUHspIhTWV2p_pad-1" x="25459" y="-18072"/><use xlink:href="#_axCQg_mwUHspIhTWV2p_pad-1" x="25615" y="-14363"/><use xlink:href="#_axCQg_mwUHspIhTWV2p_pad-1" x="25654" y="-3760"/><use xlink:href="#_axCQg_mwUHspIhTWV2p_pad-1" x="25685" y="-16832"/><use xlink:href="#_axCQg_mwUHspIhTWV2p_pad-1" x="25690" y="-16330"/><use xlink:href="#_axCQg_mwUHspIhTWV2p_pad-1" x="25740" y="-14780"/><use xlink:href="#_axCQg_mwUHspIhTWV2p_pad-1" x="25787" y="-4183"/><use xlink:href="#_axCQg_mwUHspIhTWV2p_pad-1" x="25827" y="-15541"/><use xlink:href="#_axCQg_mwUHspIhTWV2p_pad-1" x="25890" y="-6380"/><use xlink:href="#_axCQg_mwUHspIhTWV2p_pad-1" x="25890" y="-10880"/><use xlink:href="#_axCQg_mwUHspIhTWV2p_pad-1" x="25890" y="-12380"/><use xlink:href="#_axCQg_mwUHspIhTWV2p_pad-1" x="25897" y="-5873"/><use xlink:href="#_axCQg_mwUHspIhTWV2p_pad-1" x="26040" y="-16580"/><use xlink:href="#_axCQg_mwUHspIhTWV2p_pad-1" x="26040" y="-17080"/><use xlink:href="#_axCQg_mwUHspIhTWV2p_pad-1" x="26090" y="-3930"/><use xlink:href="#_axCQg_mwUHspIhTWV2p_pad-1" x="26190" y="-17680"/><use xlink:href="#_axCQg_mwUHspIhTWV2p_pad-1" x="26258" y="-15763"/><use xlink:href="#_axCQg_mwUHspIhTWV2p_pad-1" x="26340" y="-12830"/><use xlink:href="#_axCQg_mwUHspIhTWV2p_pad-1" x="26390" y="-5880"/><use xlink:href="#_axCQg_mwUHspIhTWV2p_pad-1" x="26390" y="-7380"/><use xlink:href="#_axCQg_mwUHspIhTWV2p_pad-1" x="26390" y="-7880"/><use xlink:href="#_axCQg_mwUHspIhTWV2p_pad-1" x="26390" y="-8880"/><use xlink:href="#_axCQg_mwUHspIhTWV2p_pad-1" x="26390" y="-9880"/><use xlink:href="#_axCQg_mwUHspIhTWV2p_pad-1" x="26390" y="-11880"/><use xlink:href="#_axCQg_mwUHspIhTWV2p_pad-1" x="26542" y="-3209"/><use xlink:href="#_axCQg_mwUHspIhTWV2p_pad-1" x="26890" y="-5880"/><use xlink:href="#_axCQg_mwUHspIhTWV2p_pad-1" x="26890" y="-6880"/><use xlink:href="#_axCQg_mwUHspIhTWV2p_pad-1" x="26890" y="-7380"/><use xlink:href="#_axCQg_mwUHspIhTWV2p_pad-1" x="26890" y="-10380"/><use xlink:href="#_axCQg_mwUHspIhTWV2p_pad-1" x="26890" y="-11380"/><use xlink:href="#_axCQg_mwUHspIhTWV2p_pad-1" x="26890" y="-11880"/><use xlink:href="#_axCQg_mwUHspIhTWV2p_pad-1" x="26890" y="-12380"/><use xlink:href="#_axCQg_mwUHspIhTWV2p_pad-1" x="26890" y="-12880"/><use xlink:href="#_axCQg_mwUHspIhTWV2p_pad-1" x="26890" y="-13380"/><use xlink:href="#_axCQg_mwUHspIhTWV2p_pad-1" x="26891" y="-6385"/><use xlink:href="#_axCQg_mwUHspIhTWV2p_pad-1" x="26916" y="-13880"/><use xlink:href="#_axCQg_mwUHspIhTWV2p_pad-1" x="27140" y="-3555"/><use xlink:href="#_axCQg_mwUHspIhTWV2p_pad-1" x="27225" y="-4550"/><use xlink:href="#_axCQg_mwUHspIhTWV2p_pad-1" x="27389" y="-6379"/><use xlink:href="#_axCQg_mwUHspIhTWV2p_pad-1" x="27390" y="-4880"/><use xlink:href="#_axCQg_mwUHspIhTWV2p_pad-1" x="27390" y="-6880"/><use xlink:href="#_axCQg_mwUHspIhTWV2p_pad-1" x="27390" y="-7380"/><use xlink:href="#_axCQg_mwUHspIhTWV2p_pad-1" x="27390" y="-7880"/><use xlink:href="#_axCQg_mwUHspIhTWV2p_pad-1" x="27390" y="-8880"/><use xlink:href="#_axCQg_mwUHspIhTWV2p_pad-1" x="27390" y="-11380"/><use xlink:href="#_axCQg_mwUHspIhTWV2p_pad-1" x="27390" y="-11880"/><use xlink:href="#_axCQg_mwUHspIhTWV2p_pad-1" x="27390" y="-12380"/><use xlink:href="#_axCQg_mwUHspIhTWV2p_pad-1" x="27397" y="-13873"/><use xlink:href="#_axCQg_mwUHspIhTWV2p_pad-1" x="27540" y="-4030"/><use xlink:href="#_axCQg_mwUHspIhTWV2p_pad-1" x="27640" y="-14255"/><use xlink:href="#_axCQg_mwUHspIhTWV2p_pad-1" x="27890" y="-7880"/><use xlink:href="#_axCQg_mwUHspIhTWV2p_pad-1" x="27890" y="-10380"/><use xlink:href="#_axCQg_mwUHspIhTWV2p_pad-1" x="27890" y="-11380"/><use xlink:href="#_axCQg_mwUHspIhTWV2p_pad-1" x="27890" y="-11880"/><use xlink:href="#_axCQg_mwUHspIhTWV2p_pad-1" x="27890" y="-12380"/><use xlink:href="#_axCQg_mwUHspIhTWV2p_pad-1" x="27890" y="-12880"/><use xlink:href="#_axCQg_mwUHspIhTWV2p_pad-1" x="27890" y="-6873"/><use xlink:href="#_axCQg_mwUHspIhTWV2p_pad-1" x="28015" y="-13880"/><use xlink:href="#_axCQg_mwUHspIhTWV2p_pad-1" x="28078" y="-20193"/><use xlink:href="#_axCQg_mwUHspIhTWV2p_pad-1" x="28372" y="-11357"/><use xlink:href="#_axCQg_mwUHspIhTWV2p_pad-1" x="28390" y="-14130"/><use xlink:href="#_axCQg_mwUHspIhTWV2p_pad-1" x="28390" y="-5880"/><use xlink:href="#_axCQg_mwUHspIhTWV2p_pad-1" x="28390" y="-6380"/><use xlink:href="#_axCQg_mwUHspIhTWV2p_pad-1" x="28390" y="-7880"/><use xlink:href="#_axCQg_mwUHspIhTWV2p_pad-1" x="28390" y="-8380"/><use xlink:href="#_axCQg_mwUHspIhTWV2p_pad-1" x="28390" y="-8880"/><use xlink:href="#_axCQg_mwUHspIhTWV2p_pad-1" x="28390" y="-9380"/><use xlink:href="#_axCQg_mwUHspIhTWV2p_pad-1" x="28390" y="-9880"/><use xlink:href="#_axCQg_mwUHspIhTWV2p_pad-1" x="28390" y="-10380"/><use xlink:href="#_axCQg_mwUHspIhTWV2p_pad-1" x="28390" y="-12380"/><use xlink:href="#_axCQg_mwUHspIhTWV2p_pad-1" x="28440" y="-4080"/><use xlink:href="#_axCQg_mwUHspIhTWV2p_pad-1" x="28682" y="-14538"/><use xlink:href="#_axCQg_mwUHspIhTWV2p_pad-1" x="28890" y="-3880"/><use xlink:href="#_axCQg_mwUHspIhTWV2p_pad-1" x="28890" y="-6880"/><use xlink:href="#_axCQg_mwUHspIhTWV2p_pad-1" x="28890" y="-7880"/><use xlink:href="#_axCQg_mwUHspIhTWV2p_pad-1" x="28890" y="-8880"/><use xlink:href="#_axCQg_mwUHspIhTWV2p_pad-1" x="28890" y="-9380"/><use xlink:href="#_axCQg_mwUHspIhTWV2p_pad-1" x="28890" y="-9880"/><use xlink:href="#_axCQg_mwUHspIhTWV2p_pad-1" x="28890" y="-10380"/><use xlink:href="#_axCQg_mwUHspIhTWV2p_pad-1" x="28890" y="-11380"/><use xlink:href="#_axCQg_mwUHspIhTWV2p_pad-1" x="28890" y="-13380"/><use xlink:href="#_axCQg_mwUHspIhTWV2p_pad-1" x="28895" y="-4675"/><use xlink:href="#_axCQg_mwUHspIhTWV2p_pad-1" x="28904" y="-12880"/><use xlink:href="#_axCQg_mwUHspIhTWV2p_pad-1" x="29140" y="-7280"/><use xlink:href="#_axCQg_mwUHspIhTWV2p_pad-1" x="29383" y="-8373"/><use xlink:href="#_axCQg_mwUHspIhTWV2p_pad-1" x="29390" y="-4480"/><use xlink:href="#_axCQg_mwUHspIhTWV2p_pad-1" x="29390" y="-6880"/><use xlink:href="#_axCQg_mwUHspIhTWV2p_pad-1" x="29390" y="-9380"/><use xlink:href="#_axCQg_mwUHspIhTWV2p_pad-1" x="29390" y="-10380"/><use xlink:href="#_axCQg_mwUHspIhTWV2p_pad-1" x="29390" y="-11880"/><use xlink:href="#_axCQg_mwUHspIhTWV2p_pad-1" x="29390" y="-12880"/><use xlink:href="#_axCQg_mwUHspIhTWV2p_pad-1" x="29390" y="-13880"/><use xlink:href="#_axCQg_mwUHspIhTWV2p_pad-1" x="29490" y="-11505"/><use xlink:href="#_axCQg_mwUHspIhTWV2p_pad-1" x="29822" y="-4011"/><use xlink:href="#_axCQg_mwUHspIhTWV2p_pad-1" x="29890" y="-8380"/><use xlink:href="#_axCQg_mwUHspIhTWV2p_pad-1" x="29890" y="-6880"/><use xlink:href="#_axCQg_mwUHspIhTWV2p_pad-1" x="29890" y="-7380"/><use xlink:href="#_axCQg_mwUHspIhTWV2p_pad-1" x="29890" y="-11880"/><use xlink:href="#_axCQg_mwUHspIhTWV2p_pad-1" x="29890" y="-12880"/><use xlink:href="#_axCQg_mwUHspIhTWV2p_pad-1" x="29890" y="-13880"/><use xlink:href="#_axCQg_mwUHspIhTWV2p_pad-1" x="29990" y="-20280"/><use xlink:href="#_axCQg_mwUHspIhTWV2p_pad-1" x="29990" y="-4430"/><use xlink:href="#_axCQg_mwUHspIhTWV2p_pad-1" x="30017" y="-13491"/><use xlink:href="#_axCQg_mwUHspIhTWV2p_pad-1" x="30390" y="-4230"/><use xlink:href="#_axCQg_mwUHspIhTWV2p_pad-1" x="30390" y="-6880"/><use xlink:href="#_axCQg_mwUHspIhTWV2p_pad-1" x="30390" y="-7380"/><use xlink:href="#_axCQg_mwUHspIhTWV2p_pad-1" x="30390" y="-11505"/><use xlink:href="#_axCQg_mwUHspIhTWV2p_pad-1" x="30515" y="-12630"/><use xlink:href="#_axCQg_mwUHspIhTWV2p_pad-1" x="30515" y="-13505"/><use xlink:href="#_axCQg_mwUHspIhTWV2p_pad-1" x="30540" y="-6080"/><use xlink:href="#_axCQg_mwUHspIhTWV2p_pad-1" x="30635" y="-8525"/><use xlink:href="#_axCQg_mwUHspIhTWV2p_pad-1" x="30640" y="-8130"/><use xlink:href="#_axCQg_mwUHspIhTWV2p_pad-1" x="30785" y="-7229"/><use xlink:href="#_axCQg_mwUHspIhTWV2p_pad-1" x="30815" y="-11505"/><use xlink:href="#_axCQg_mwUHspIhTWV2p_pad-1" x="31140" y="-7330"/><use xlink:href="#_axCQg_mwUHspIhTWV2p_pad-1" x="31190" y="-3630"/><use xlink:href="#_axCQg_mwUHspIhTWV2p_pad-1" x="31290" y="-12130"/><use xlink:href="#_axCQg_mwUHspIhTWV2p_pad-1" x="31440" y="-6080"/><use xlink:href="#_axCQg_mwUHspIhTWV2p_pad-1" x="31634" y="-19050"/><use xlink:href="#_axCQg_mwUHspIhTWV2p_pad-1" x="31740" y="-10480"/><use xlink:href="#_axCQg_mwUHspIhTWV2p_pad-1" x="31985" y="-8526"/><use xlink:href="#_axCQg_mwUHspIhTWV2p_pad-1" x="32015" y="-18669"/><use xlink:href="#_axCQg_mwUHspIhTWV2p_pad-1" x="32290" y="-3740"/><use xlink:href="#_axCQg_mwUHspIhTWV2p_pad-1" x="32290" y="-16665"/><use xlink:href="#_axCQg_mwUHspIhTWV2p_pad-1" x="32690" y="-19680"/><use xlink:href="#_axCQg_mwUHspIhTWV2p_pad-1" x="33490" y="-18380"/><use xlink:href="#_axCQg_mwUHspIhTWV2p_pad-1" x="33777" y="-3184"/><use xlink:href="#_axCQg_mwUHspIhTWV2p_pad-1" x="34230" y="-3184"/><use xlink:href="#_axCQg_mwUHspIhTWV2p_pad-1" x="34690" y="-9630"/><use xlink:href="#_axCQg_mwUHspIhTWV2p_pad-1" x="34699" y="-3730"/><use xlink:href="#_axCQg_mwUHspIhTWV2p_pad-1" x="34990" y="-16665"/><use xlink:href="#_axCQg_mwUHspIhTWV2p_pad-1" x="35440" y="-16480"/><use xlink:href="#_axCQg_mwUHspIhTWV2p_pad-1" x="35540" y="-9580"/><use xlink:href="#_axCQg_mwUHspIhTWV2p_pad-1" x="35690" y="-10471"/><use xlink:href="#_axCQg_mwUHspIhTWV2p_pad-1" x="35890" y="-6880"/><use xlink:href="#_axCQg_mwUHspIhTWV2p_pad-1" x="35890" y="-9180"/><use xlink:href="#_axCQg_mwUHspIhTWV2p_pad-1" x="35890" y="-14880"/><use xlink:href="#_axCQg_mwUHspIhTWV2p_pad-1" x="35940" y="-16471"/><use xlink:href="#_axCQg_mwUHspIhTWV2p_pad-1" x="35940" y="-5280"/><use xlink:href="#_axCQg_mwUHspIhTWV2p_pad-1" x="35940" y="-11680"/><use xlink:href="#_axCQg_mwUHspIhTWV2p_pad-1" x="35940" y="-13280"/><use xlink:href="#_axCQg_mwUHspIhTWV2p_pad-1" x="35940" y="-17280"/><use xlink:href="#_axCQg_mwUHspIhTWV2p_pad-1" x="36590" y="-18680"/><use xlink:href="#_axCQg_mwUHspIhTWV2p_pad-1" x="36716" y="-6890"/><use xlink:href="#_axCQg_mwUHspIhTWV2p_pad-1" x="36740" y="-5280"/><use xlink:href="#_axCQg_mwUHspIhTWV2p_pad-1" x="36740" y="-11680"/><use xlink:href="#_axCQg_mwUHspIhTWV2p_pad-1" x="36740" y="-13280"/><use xlink:href="#_axCQg_mwUHspIhTWV2p_pad-1" x="36740" y="-16480"/><use xlink:href="#_axCQg_mwUHspIhTWV2p_pad-1" x="36740" y="-17280"/><use xlink:href="#_axCQg_mwUHspIhTWV2p_pad-1" x="36790" y="-9280"/><use xlink:href="#_axCQg_mwUHspIhTWV2p_pad-1" x="37390" y="-9280"/><use xlink:href="#_axCQg_mwUHspIhTWV2p_pad-1" x="37390" y="-18680"/><use xlink:href="#_axCQg_mwUHspIhTWV2p_pad-1" x="37540" y="-10880"/><use xlink:href="#_axCQg_mwUHspIhTWV2p_pad-1" x="37540" y="-11680"/><use xlink:href="#_axCQg_mwUHspIhTWV2p_pad-1" x="37540" y="-13280"/><use xlink:href="#_axCQg_mwUHspIhTWV2p_pad-1" x="37540" y="-14080"/><use xlink:href="#_axCQg_mwUHspIhTWV2p_pad-1" x="37540" y="-14880"/><use xlink:href="#_axCQg_mwUHspIhTWV2p_pad-1" x="37540" y="-17280"/><use xlink:href="#_axCQg_mwUHspIhTWV2p_pad-1" x="38240" y="-5280"/><use xlink:href="#_axCQg_mwUHspIhTWV2p_pad-1" x="38240" y="-6080"/><use xlink:href="#_axCQg_mwUHspIhTWV2p_pad-1" x="38240" y="-6880"/><use xlink:href="#_axCQg_mwUHspIhTWV2p_pad-1" x="38340" y="-14880"/><use xlink:href="#_axCQg_mwUHspIhTWV2p_pad-1" x="38340" y="-9280"/><use xlink:href="#_axCQg_mwUHspIhTWV2p_pad-1" x="38340" y="-10880"/><use xlink:href="#_axCQg_mwUHspIhTWV2p_pad-1" x="38340" y="-11680"/><use xlink:href="#_axCQg_mwUHspIhTWV2p_pad-1" x="38340" y="-14080"/><use xlink:href="#_axCQg_mwUHspIhTWV2p_pad-1" x="38340" y="-15680"/><use xlink:href="#_axCQg_mwUHspIhTWV2p_pad-1" x="38340" y="-16480"/><use xlink:href="#_axCQg_mwUHspIhTWV2p_pad-1" x="38340" y="-13280"/><use xlink:href="#_axCQg_mwUHspIhTWV2p_pad-1" x="38540" y="-3630"/><use xlink:href="#_axCQg_mwUHspIhTWV2p_pad-1" x="38940" y="-11680"/><use xlink:href="#_axCQg_mwUHspIhTWV2p_pad-1" x="39040" y="-6080"/><use xlink:href="#_axCQg_mwUHspIhTWV2p_pad-1" x="39040" y="-6480"/><use xlink:href="#_axCQg_mwUHspIhTWV2p_pad-1" x="39040" y="-7530"/><use xlink:href="#_axCQg_mwUHspIhTWV2p_pad-1" x="39040" y="-9280"/><use xlink:href="#_axCQg_mwUHspIhTWV2p_pad-1" x="39890" y="-5030"/><use xlink:href="#_axCQg_mwUHspIhTWV2p_pad-1" x="40090" y="-6080"/><use xlink:href="#_axCQg_mwUHspIhTWV2p_pad-1" x="40090" y="-6880"/><use xlink:href="#_axCQg_mwUHspIhTWV2p_pad-1" x="40090" y="-7680"/><use xlink:href="#_axCQg_mwUHspIhTWV2p_pad-1" x="40090" y="-8480"/><use xlink:href="#_axCQg_mwUHspIhTWV2p_pad-1" x="40090" y="-9280"/><use xlink:href="#_axCQg_mwUHspIhTWV2p_pad-1" x="40090" y="-10080"/><use xlink:href="#_axCQg_mwUHspIhTWV2p_pad-1" x="40090" y="-19380"/><use xlink:href="#_axCQg_mwUHspIhTWV2p_pad-1" x="40590" y="-3630"/><use xlink:href="#_axCQg_mwUHspIhTWV2p_pad-1" x="40590" y="-4580"/><use xlink:href="#_axCQg_mwUHspIhTWV2p_pad-1" x="40690" y="-6180"/><use xlink:href="#_axCQg_mwUHspIhTWV2p_pad-1" x="40690" y="-10080"/><use xlink:href="#_axCQg_mwUHspIhTWV2p_pad-1" x="40740" y="-11680"/><use xlink:href="#_axCQg_mwUHspIhTWV2p_pad-1" x="40740" y="-12480"/><use xlink:href="#_axCQg_mwUHspIhTWV2p_pad-1" x="40740" y="-14080"/><use xlink:href="#_axCQg_mwUHspIhTWV2p_pad-1" x="40740" y="-14880"/><use xlink:href="#_axCQg_mwUHspIhTWV2p_pad-1" x="40740" y="-15680"/><use xlink:href="#_axCQg_mwUHspIhTWV2p_pad-1" x="40740" y="-16480"/><use xlink:href="#_axCQg_mwUHspIhTWV2p_pad-1" x="40890" y="-5280"/><use xlink:href="#_axCQg_mwUHspIhTWV2p_pad-1" x="40890" y="-6880"/><use xlink:href="#_axCQg_mwUHspIhTWV2p_pad-1" x="40890" y="-7680"/><use xlink:href="#_axCQg_mwUHspIhTWV2p_pad-1" x="40890" y="-8480"/><use xlink:href="#_axCQg_mwUHspIhTWV2p_pad-1" x="40890" y="-9280"/><use xlink:href="#_axCQg_mwUHspIhTWV2p_pad-1" x="40990" y="-17880"/><use xlink:href="#_axCQg_mwUHspIhTWV2p_pad-1" x="41540" y="-10080"/><use xlink:href="#_axCQg_mwUHspIhTWV2p_pad-1" x="41540" y="-11680"/><use xlink:href="#_axCQg_mwUHspIhTWV2p_pad-1" x="41540" y="-12480"/><use xlink:href="#_axCQg_mwUHspIhTWV2p_pad-1" x="41540" y="-13280"/><use xlink:href="#_axCQg_mwUHspIhTWV2p_pad-1" x="41540" y="-14080"/><use xlink:href="#_axCQg_mwUHspIhTWV2p_pad-1" x="41540" y="-14880"/><use xlink:href="#_axCQg_mwUHspIhTWV2p_pad-1" x="41540" y="-16480"/><use xlink:href="#_axCQg_mwUHspIhTWV2p_pad-1" x="41790" y="-17480"/><use xlink:href="#_axCQg_mwUHspIhTWV2p_pad-1" x="41790" y="-18680"/><use xlink:href="#_axCQg_mwUHspIhTWV2p_pad-1" x="42190" y="-9280"/><use xlink:href="#_axCQg_mwUHspIhTWV2p_pad-1" x="42190" y="-18680"/><use xlink:href="#_axCQg_mwUHspIhTWV2p_pad-1" x="42340" y="-7680"/><use xlink:href="#_axCQg_mwUHspIhTWV2p_pad-1" x="42340" y="-10730"/><use xlink:href="#_axCQg_mwUHspIhTWV2p_pad-1" x="42340" y="-12480"/><use xlink:href="#_axCQg_mwUHspIhTWV2p_pad-1" x="42340" y="-14080"/><use xlink:href="#_axCQg_mwUHspIhTWV2p_pad-1" x="42340" y="-14880"/><use xlink:href="#_axCQg_mwUHspIhTWV2p_pad-1" x="42340" y="-15680"/><use xlink:href="#_axCQg_mwUHspIhTWV2p_pad-1" x="42340" y="-8480"/><use xlink:href="#_axCQg_mwUHspIhTWV2p_pad-1" x="43140" y="-5280"/><use xlink:href="#_axCQg_mwUHspIhTWV2p_pad-1" x="43140" y="-6280"/><use xlink:href="#_axCQg_mwUHspIhTWV2p_pad-1" x="43140" y="-6880"/><use xlink:href="#_axCQg_mwUHspIhTWV2p_pad-1" x="43140" y="-13280"/><use xlink:href="#_axCQg_mwUHspIhTWV2p_pad-1" x="43140" y="-14080"/><use xlink:href="#_axCQg_mwUHspIhTWV2p_pad-1" x="43140" y="-14880"/><use xlink:href="#_axCQg_mwUHspIhTWV2p_pad-1" x="43140" y="-15680"/><use xlink:href="#_axCQg_mwUHspIhTWV2p_pad-1" x="43140" y="-16480"/><use xlink:href="#_axCQg_mwUHspIhTWV2p_pad-1" x="43140" y="-17280"/><use xlink:href="#_axCQg_mwUHspIhTWV2p_pad-1" x="43190" y="-10080"/><use xlink:href="#_axCQg_mwUHspIhTWV2p_pad-1" x="43240" y="-12730"/><use xlink:href="#_axCQg_mwUHspIhTWV2p_pad-1" x="44690" y="-17780"/><use xlink:href="#_axCQg_mwUHspIhTWV2p_pad-1" x="45290" y="-13230"/><use xlink:href="#_axCQg_mwUHspIhTWV2p_pad-1" x="45490" y="-3780"/><use xlink:href="#_axCQg_mwUHspIhTWV2p_pad-1" x="45490" y="-15130"/><use xlink:href="#_axCQg_mwUHspIhTWV2p_pad-1" x="45490" y="-16230"/><use xlink:href="#_axCQg_mwUHspIhTWV2p_pad-1" x="45890" y="-4680"/><use xlink:href="#_axCQg_mwUHspIhTWV2p_pad-1" x="46140" y="-5735"/><use xlink:href="#_axCQg_mwUHspIhTWV2p_pad-1" x="46340" y="-13680"/><use xlink:href="#_axCQg_mwUHspIhTWV2p_pad-1" x="46340" y="-17780"/><use xlink:href="#_axCQg_mwUHspIhTWV2p_pad-1" x="46540" y="-5830"/><use xlink:href="#_axCQg_mwUHspIhTWV2p_pad-1" x="46940" y="-5730"/><use xlink:href="#_axCQg_mwUHspIhTWV2p_pad-1" x="47190" y="-5130"/><use xlink:href="#_axCQg_mwUHspIhTWV2p_pad-1" x="47940" y="-9030"/><use xlink:href="#_axCQg_mwUHspIhTWV2p_pad-1" x="47990" y="-10630"/><use xlink:href="#_axCQg_mwUHspIhTWV2p_pad-1" x="48090" y="-5755"/><use xlink:href="#_axCQg_mwUHspIhTWV2p_pad-1" x="48092" y="-6105"/><use xlink:href="#_axCQg_mwUHspIhTWV2p_pad-1" x="48190" y="-9730"/><use xlink:href="#_axCQg_mwUHspIhTWV2p_pad-1" x="48390" y="-6930"/><use xlink:href="#_axCQg_mwUHspIhTWV2p_pad-1" x="48465" y="-15055"/><use xlink:href="#_axCQg_mwUHspIhTWV2p_pad-1" x="49140" y="-5280"/><use xlink:href="#_axCQg_mwUHspIhTWV2p_pad-1" x="49790" y="-11080"/><use xlink:href="#_axCQg_mwUHspIhTWV2p_pad-1" x="49790" y="-11830"/><use xlink:href="#_axCQg_mwUHspIhTWV2p_pad-2" x="46040" y="-7380"/><use xlink:href="#_axCQg_mwUHspIhTWV2p_pad-2" x="47040" y="-7380"/><use xlink:href="#_axCQg_mwUHspIhTWV2p_pad-3" x="16267" y="-6880"/><use xlink:href="#_axCQg_mwUHspIhTWV2p_pad-3" x="16267" y="-15980"/><use xlink:href="#_axCQg_mwUHspIhTWV2p_pad-4" x="4130" y="-8930"/><use xlink:href="#_axCQg_mwUHspIhTWV2p_pad-4" x="4130" y="-13930"/><use xlink:href="#_axCQg_mwUHspIhTWV2p_pad-5" x="6350" y="-21590"/><use xlink:href="#_axCQg_mwUHspIhTWV2p_pad-5" x="8890" y="-21590"/><use xlink:href="#_axCQg_mwUHspIhTWV2p_pad-5" x="11430" y="-21590"/><use xlink:href="#_axCQg_mwUHspIhTWV2p_pad-5" x="13970" y="-21590"/><use xlink:href="#_axCQg_mwUHspIhTWV2p_pad-5" x="16510" y="-21590"/><use xlink:href="#_axCQg_mwUHspIhTWV2p_pad-5" x="19050" y="-21590"/><use xlink:href="#_axCQg_mwUHspIhTWV2p_pad-5" x="21590" y="-21590"/><use xlink:href="#_axCQg_mwUHspIhTWV2p_pad-5" x="24130" y="-21590"/><use xlink:href="#_axCQg_mwUHspIhTWV2p_pad-5" x="26670" y="-21590"/><use xlink:href="#_axCQg_mwUHspIhTWV2p_pad-5" x="29210" y="-21590"/><use xlink:href="#_axCQg_mwUHspIhTWV2p_pad-5" x="31750" y="-21590"/><use xlink:href="#_axCQg_mwUHspIhTWV2p_pad-5" x="34290" y="-21590"/><use xlink:href="#_axCQg_mwUHspIhTWV2p_pad-5" x="36830" y="-21590"/><use xlink:href="#_axCQg_mwUHspIhTWV2p_pad-5" x="39370" y="-21590"/><use xlink:href="#_axCQg_mwUHspIhTWV2p_pad-5" x="41910" y="-21590"/><use xlink:href="#_axCQg_mwUHspIhTWV2p_pad-5" x="44450" y="-21590"/><use xlink:href="#_axCQg_mwUHspIhTWV2p_pad-5" x="16510" y="-1270"/><use xlink:href="#_axCQg_mwUHspIhTWV2p_pad-5" x="19050" y="-1270"/><use xlink:href="#_axCQg_mwUHspIhTWV2p_pad-5" x="21590" y="-1270"/><use xlink:href="#_axCQg_mwUHspIhTWV2p_pad-5" x="24130" y="-1270"/><use xlink:href="#_axCQg_mwUHspIhTWV2p_pad-5" x="26670" y="-1270"/><use xlink:href="#_axCQg_mwUHspIhTWV2p_pad-5" x="29210" y="-1270"/><use xlink:href="#_axCQg_mwUHspIhTWV2p_pad-5" x="31750" y="-1270"/><use xlink:href="#_axCQg_mwUHspIhTWV2p_pad-5" x="34290" y="-1270"/><use xlink:href="#_axCQg_mwUHspIhTWV2p_pad-5" x="36830" y="-1270"/><use xlink:href="#_axCQg_mwUHspIhTWV2p_pad-5" x="39370" y="-1270"/><use xlink:href="#_axCQg_mwUHspIhTWV2p_pad-5" x="41910" y="-1270"/><use xlink:href="#_axCQg_mwUHspIhTWV2p_pad-5" x="44450" y="-1270"/><use xlink:href="#_axCQg_mwUHspIhTWV2p_pad-6" x="2540" y="-20320"/><use xlink:href="#_axCQg_mwUHspIhTWV2p_pad-6" x="2540" y="-2540"/><use xlink:href="#_axCQg_mwUHspIhTWV2p_pad-7" x="48260" y="-20320"/><use xlink:href="#_axCQg_mwUHspIhTWV2p_pad-7" x="48260" y="-2540"/><path d="M 1079 -7930 1779 -7930 M 1779 -14930 1079 -14930" fill="none" stroke-width="600"/></g></svg>